<svg version="1.1" id="Layer_1" xmlns="http://www.w3.org/2000/svg" xmlns:xlink="http://www.w3.org/1999/xlink" x="0px" y="0px"
	 width="100%" viewBox="0 0 496 480" enable-background="new 0 0 496 480" xml:space="preserve">
<path fill="#000000" opacity="1.000000" stroke="none" 
	d="
M273.000000,481.000000 
	C182.000015,481.000000 91.500046,481.000000 1.000049,481.000000 
	C1.000032,321.000061 1.000032,161.000122 1.000016,1.000134 
	C166.333237,1.000090 331.666473,1.000090 496.999756,1.000045 
	C496.999847,160.999863 496.999847,320.999725 496.999939,480.999786 
	C422.500000,481.000000 348.000000,481.000000 273.000000,481.000000 
M215.211395,402.320038 
	C226.768967,404.431793 238.447800,403.668396 250.071426,403.539032 
	C259.951080,403.429047 269.199951,405.411804 277.928711,409.899567 
	C283.993896,413.017822 290.480621,413.062714 296.947083,412.418579 
	C302.515747,411.863892 304.487793,409.113983 304.647583,403.356964 
	C304.700806,401.439484 304.109833,399.388641 305.626892,397.291016 
	C336.175751,415.990204 366.816864,415.952118 394.777802,393.449738 
	C423.898773,370.013855 424.042389,338.843475 413.115875,305.889832 
	C414.537048,305.592468 416.121582,305.385223 417.673553,306.236053 
	C420.088623,319.192139 423.386597,317.459686 430.356720,317.589325 
	C433.949707,317.656158 436.755615,315.938354 437.272156,312.370239 
	C437.850525,308.374725 439.320160,302.399231 434.856201,301.136047 
	C428.475159,299.330383 427.255188,295.207672 425.906128,290.164612 
	C425.548584,288.827942 424.353760,287.605347 423.294952,286.589233 
	C421.141846,284.522919 418.646088,282.797028 416.602264,280.636871 
	C412.095428,275.873383 411.890839,273.594086 415.385590,267.938904 
	C419.652405,261.034485 421.637787,253.723480 420.364838,245.568924 
	C419.665680,241.090103 417.983337,236.962677 416.563995,232.723511 
	C414.720856,227.218506 415.870728,223.205978 420.779633,220.248642 
	C425.240540,217.561203 429.660858,214.432938 435.643005,216.419785 
	C438.195892,217.267670 441.280182,216.788803 444.089508,216.538010 
	C451.263977,215.897537 454.924835,211.060959 454.617523,202.946198 
	C454.365295,196.287369 450.334717,192.548279 443.280640,192.379898 
	C438.600616,192.268188 434.013763,192.465378 429.501770,194.094681 
	C426.554474,195.158936 423.393494,195.695312 420.168884,195.322876 
	C414.436096,194.660736 410.717560,189.757523 411.470673,184.025162 
	C411.988281,180.085648 411.817749,176.312546 407.657715,174.063629 
	C395.655579,167.575272 380.108734,175.315796 378.485168,188.687408 
	C377.905212,193.463913 379.694885,197.823318 381.271484,202.222870 
	C385.936066,215.239838 389.501556,228.423904 389.487823,242.482742 
	C389.476990,253.575485 386.935913,264.582703 389.352631,277.499725 
	C367.779083,262.796814 345.574432,261.458923 322.525543,267.624207 
	C320.768677,266.339081 320.773041,264.530182 320.606110,262.670868 
	C319.354980,248.733414 316.306732,235.178406 311.493286,222.046722 
	C310.685547,219.843140 310.254364,217.037552 307.124176,216.469193 
	C304.420502,215.978287 302.792114,217.686203 300.633759,220.656021 
	C298.078827,187.549133 284.938965,158.746399 273.769073,128.343063 
	C285.506287,131.212402 296.243500,130.459183 306.592621,132.719452 
	C327.752411,137.340775 346.674286,145.832947 359.719391,164.210175 
	C362.912140,168.707932 366.980591,171.105209 372.862305,170.725037 
	C379.953033,170.266754 383.527557,168.505981 385.073029,163.444946 
	C386.911438,157.424545 384.802979,151.071289 379.812714,147.487671 
	C377.067780,145.516495 373.908295,144.478226 370.769470,143.401184 
	C363.041046,140.749237 357.088409,134.804367 361.210602,125.569786 
	C363.449951,120.553139 362.827606,114.945602 361.874664,109.378166 
	C360.739105,102.743370 354.724579,100.162781 348.444031,100.784172 
	C342.139435,101.407936 338.924835,105.592171 335.381287,109.783600 
	C333.984558,111.435684 332.291077,113.334534 329.892273,111.691368 
	C327.426697,110.002464 324.107605,107.508194 326.073914,104.491119 
	C330.232758,98.109924 328.983124,89.595589 335.063019,83.981339 
	C337.780701,81.471802 337.381653,77.344086 335.745758,74.117706 
	C334.126312,70.923859 330.775513,71.120399 327.752563,71.652740 
	C323.972473,72.318405 321.606415,74.982124 321.656830,78.564217 
	C321.720032,83.054779 319.858887,86.481224 317.644287,90.025635 
	C316.607941,91.684212 315.976135,93.639053 315.397583,95.531937 
	C313.728149,100.993889 311.251465,102.395203 305.822021,101.336098 
	C297.960571,99.802582 291.865631,95.655876 286.472595,89.858353 
	C282.589050,85.683525 277.380585,84.128181 271.852875,86.359665 
	C266.754150,88.417961 267.424164,93.242241 267.389618,97.538803 
	C267.351135,102.317863 267.166870,107.097176 268.307648,112.862892 
	C265.620819,110.429131 264.937347,108.332016 264.152100,106.379768 
	C252.460007,77.311279 238.471649,49.429493 221.397461,23.125704 
	C217.084518,16.481346 211.365021,16.373840 206.897491,23.108410 
	C183.998169,57.628139 162.338913,92.872185 145.658508,130.909851 
	C137.853531,148.708176 130.004150,166.527405 125.757446,185.641037 
	C125.203438,188.134491 125.621132,190.954376 123.242081,193.340973 
	C121.242348,189.592453 119.764153,185.507019 115.028580,184.537094 
	C102.423630,181.955322 94.403397,188.801239 95.556870,201.648666 
	C95.833740,204.732483 95.073120,206.283966 92.433769,207.447678 
	C87.281029,209.719559 81.828606,211.440674 77.608490,215.478607 
	C76.444191,216.592636 74.898285,216.401611 74.174362,215.038269 
	C71.418907,209.848907 66.663452,210.285736 61.967346,210.417404 
	C55.484875,210.599136 52.525673,213.537964 52.381683,219.941986 
	C52.204727,227.812408 55.505211,232.077469 61.869225,232.653381 
	C64.939865,232.931259 67.683662,231.600754 71.238091,231.243484 
	C70.606461,240.112595 76.401245,245.313370 81.934883,250.665833 
	C86.671761,255.247650 90.500771,260.305939 91.812698,267.027679 
	C94.195053,279.233734 95.992226,291.516815 97.415741,303.867310 
	C98.218124,310.828796 99.676956,317.471130 104.412666,323.213257 
	C109.489655,329.369324 115.173576,334.959900 120.241165,341.093567 
	C128.901215,351.575439 131.425980,365.103241 117.654449,374.666382 
	C111.298492,379.079956 104.330452,382.124298 97.366859,385.248444 
	C93.920776,386.794464 90.790527,389.328613 90.788605,392.776733 
	C90.784836,399.535278 87.008690,399.811768 82.103531,399.369537 
	C77.638229,398.967010 74.586418,400.968079 73.544731,405.278137 
	C71.917854,412.009430 73.795242,418.214996 77.822762,420.002594 
	C80.663719,421.263550 83.749580,420.585327 86.720085,420.595123 
	C92.631477,420.614624 94.960098,418.756866 95.490700,412.781128 
	C95.785324,409.463043 97.045242,408.481506 100.110847,408.609131 
	C107.969131,408.936371 114.266151,405.384827 118.282997,399.077637 
	C122.072701,393.127075 127.434975,389.046997 132.351227,384.375000 
	C135.735977,381.158417 139.829178,380.082611 144.336136,380.704254 
	C150.269012,381.522552 156.082275,382.824890 161.472656,385.617828 
	C166.052933,387.991028 170.623703,390.400085 175.318115,392.530060 
	C179.248001,394.313080 183.613678,394.443207 187.477661,392.887238 
	C190.956039,391.486603 189.145004,387.565735 189.772049,384.782532 
	C189.906891,384.184052 190.257965,383.634277 190.542923,382.985870 
	C192.365448,383.203796 193.995880,383.518738 195.634995,383.573242 
	C201.631836,383.772766 203.649872,381.635132 203.643158,375.617126 
	C203.636002,369.211029 198.635468,366.434082 194.457291,363.474487 
	C186.733826,358.003632 178.471069,353.301178 170.629105,347.989105 
	C151.965027,335.346252 137.875229,318.909485 130.325195,297.446564 
	C128.561493,292.432831 125.816208,287.538635 126.358284,281.600311 
	C145.910797,328.652313 180.913818,349.513855 231.617783,343.490875 
	C230.857117,349.521393 232.337341,354.026672 236.593262,357.117279 
	C240.403229,359.884094 244.782288,361.549713 249.597382,361.605896 
	C259.879547,361.725861 270.323578,362.672943 279.308685,355.166565 
	C281.631409,361.768372 283.635712,367.465118 285.636017,373.150604 
	C285.234924,373.309723 285.067871,373.443420 284.965881,373.404877 
	C284.511932,373.233246 284.014374,373.090912 283.643982,372.797394 
	C277.839508,368.198059 271.461182,366.762817 264.076904,368.160034 
	C255.292099,369.822174 246.504013,371.500458 237.438690,371.520081 
	C230.258270,371.535645 223.189499,370.291931 216.033875,370.402954 
	C212.892975,370.451691 209.447983,369.883545 207.984909,373.780975 
	C206.529831,377.657135 208.385971,380.127075 211.672409,381.934906 
	C213.445358,382.910217 213.415131,384.607910 213.254944,386.317688 
	C213.087646,388.103577 211.737259,388.253510 210.374649,388.423340 
	C206.005600,388.967987 205.057922,391.950836 205.440735,395.658630 
	C206.003754,401.111938 211.011688,400.500000 215.211395,402.320038 
M385.299408,252.440186 
	C386.868469,241.795853 385.514587,231.948578 377.816101,223.673569 
	C375.904205,221.618484 374.225189,219.284225 372.773926,216.876495 
	C369.960846,212.209534 365.016113,209.307358 361.920624,204.109497 
	C368.745941,203.571899 371.316956,199.591492 372.291290,193.938156 
	C373.466278,187.120804 370.184967,182.101196 366.059113,177.314911 
	C355.888397,165.516159 343.154205,157.315460 329.445923,150.188126 
	C318.572845,144.534897 307.259888,140.513077 295.378296,137.842407 
	C293.008759,137.309769 290.973999,137.644196 289.955353,140.051422 
	C289.048401,142.194611 289.144318,144.315765 291.248413,145.872147 
	C292.184052,146.564209 293.139069,147.234818 294.121429,147.858261 
	C308.225006,156.808853 320.882202,167.467545 332.715912,179.269516 
	C341.186066,187.716934 346.797607,197.198715 347.368927,209.243423 
	C345.985291,208.807053 345.260284,207.312332 344.462402,205.973938 
	C334.667725,189.543121 322.090851,175.413651 308.115723,162.509018 
	C304.517944,159.186798 301.883850,154.632446 296.744598,153.052048 
	C294.474609,152.353973 292.347931,152.206482 290.754517,154.014511 
	C289.208344,155.768967 289.001648,158.053406 290.298187,160.070374 
	C291.907806,162.574387 293.646667,165.023422 295.568726,167.293900 
	C307.930817,181.896896 316.041443,198.669968 320.646576,217.118713 
	C322.445221,224.324432 322.683441,231.847031 324.210632,239.160797 
	C326.466187,249.962646 332.951294,255.624908 344.009430,255.618423 
	C351.957764,255.613754 356.370392,251.380508 356.602417,243.463333 
	C356.679993,240.816376 356.614685,238.165237 356.614685,235.515991 
	C357.060730,235.511383 357.506775,235.506775 357.952820,235.502151 
	C359.406219,240.541473 360.714600,245.628632 362.356232,250.605865 
	C363.828278,255.068817 367.487640,257.301849 371.880035,257.460693 
	C376.613739,257.631897 382.192017,259.353027 385.299408,252.440186 
M415.323761,171.615646 
	C420.803009,171.729019 424.908386,169.423935 426.086823,163.981339 
	C427.210175,158.793182 427.996857,152.972733 423.143524,149.186066 
	C418.922241,145.892502 413.525452,146.678680 408.828491,148.259521 
	C404.506378,149.714203 402.144470,158.107010 403.593719,164.256058 
	C404.753265,169.176147 408.033081,171.392487 415.323761,171.615646 
z"/>
<path fill="#000000" opacity="1.000000" stroke="none" 
	d="
M272.815491,269.781372 
	C262.904022,273.087524 257.715179,279.800598 257.427856,289.808502 
	C257.342529,292.781616 256.589600,294.001953 253.354736,294.607391 
	C238.410858,297.404205 220.347534,284.004395 219.859039,268.432648 
	C219.473068,256.129547 230.318863,236.055923 248.979279,237.543640 
	C261.609070,238.550537 277.377686,254.282364 277.283844,266.505280 
	C277.259918,269.622284 275.012024,269.200043 272.815491,269.781372 
z"/>
<path fill="#000000" opacity="1.000000" stroke="none" 
	d="
M317.636536,320.702698 
	C309.529022,325.284698 303.234772,323.037048 299.410797,314.690735 
	C297.090424,309.626221 300.268188,306.321503 303.187500,303.282104 
	C305.743073,300.621429 308.856293,299.193665 312.992065,301.312042 
	C322.575989,306.220947 324.538177,313.156494 317.636536,320.702698 
z"/>
<path fill="#000000" opacity="1.000000" stroke="none" 
	d="
M216.969421,317.967041 
	C218.555511,320.762604 216.625717,320.875427 215.014389,321.457092 
	C204.168503,325.372375 194.085327,322.116058 184.166092,318.075684 
	C179.920914,316.346466 176.065460,313.798401 172.259827,310.077454 
	C175.339340,309.568237 177.342392,310.878540 179.463577,311.462219 
	C189.723648,314.285614 199.977478,317.082245 210.781982,314.777710 
	C213.488937,314.200378 215.126022,315.923218 216.969421,317.967041 
z"/>
<path fill="#000000" opacity="1.000000" stroke="none" 
	d="
M201.313217,61.606590 
	C204.039917,62.337502 205.141388,64.863922 203.902283,67.984184 
	C202.872253,70.577942 201.578720,73.201630 199.837448,75.355789 
	C190.826401,86.503403 183.428772,98.643517 176.998795,111.412926 
	C176.490860,112.421677 176.060135,113.584236 173.600037,114.157860 
	C181.529678,95.533028 190.985123,78.530899 201.313217,61.606590 
z"/>
<path fill="#000000" opacity="1.000000" stroke="none" 
	d="
M301.526093,358.241028 
	C301.831818,359.553162 302.428589,360.489990 301.237823,361.709015 
	C297.617859,355.315002 296.533325,348.525482 296.143433,341.315430 
	C299.129547,342.477783 299.129547,342.477783 301.526093,358.241028 
z"/>
</svg>