<?xml version="1.0" encoding="UTF-8"?>
<svg version="1.1" xmlns="http://www.w3.org/2000/svg" width="48" height="48">
<path d="M0 0 C0 1.32 0 2.64 0 4 C-1.98 4.99 -3.96 5.98 -6 7 C-4.6078125 7.61875 -4.6078125 7.61875 -3.1875 8.25 C1.49372385 10.82008368 1.49372385 10.82008368 3 14 C3.81487831 18.82589046 3.74762584 21.94452823 0.875 26 C-2.37600973 28.26157198 -4.04509656 29 -8 29 C-14.08622147 27.07269653 -14.08622147 27.07269653 -16.4375 24.3125 C-18.00431243 17.87116001 -17.2933612 12.73682274 -14 7 C-9.69045462 2.47650556 -6.45739028 0 0 0 Z " fill="#000000" transform="translate(42,10)"/>
<path d="M0 0 C-1 3 -1 3 -4.0625 4.6875 C-5.031875 5.120625 -6.00125 5.55375 -7 6 C-6.44570312 6.24234375 -5.89140625 6.4846875 -5.3203125 6.734375 C-4.59585937 7.06953125 -3.87140625 7.4046875 -3.125 7.75 C-2.40570313 8.07484375 -1.68640625 8.3996875 -0.9453125 8.734375 C1.41649922 10.2709754 2.09041883 11.34866766 3 14 C3.22494705 18.25899746 2.70883584 21.90948332 0.375 25.5 C-2.81427792 27.51428079 -5.24392582 27.86820792 -9 28 C-13.06698449 26.98325388 -14.82145694 25.53476283 -17 22 C-17.97646644 16.25556229 -17.73628587 10.41974146 -14.40234375 5.5078125 C-10.48503144 1.29588338 -5.82642506 -2.36698518 0 0 Z " fill="#000000" transform="translate(20,11)"/>
</svg>
